<svg width="226" height="138" viewBox="0 0 226 138" fill="none" xmlns="http://www.w3.org/2000/svg">
<path d="M210.309 19.1979C204.08 19.1979 198.993 24.2849 198.993 30.5779V60.5281H203.001V30.5779C203.001 26.5067 206.306 23.2015 210.314 23.2015C214.385 23.2015 217.69 26.5067 217.69 30.5779V60.5281H221.698V30.5779C221.694 24.2849 216.607 19.1979 210.309 19.1979Z" fill="white"/>
<path d="M172.67 60.5281H192.315V56.5203H176.673V41.8351H188.184V37.8274H176.673V23.2057H193.081V19.1979H172.67V60.5281Z" fill="white"/>
<path d="M160.016 49.1481C160.016 53.2193 156.711 56.5245 152.703 56.5245C148.632 56.5245 145.326 53.2193 145.326 49.1481V19.1979H141.323V49.1481C141.323 55.4411 146.41 60.5281 152.703 60.5281C158.932 60.5281 164.019 55.4411 164.019 49.1481V19.1979H160.012V49.1481H160.016Z" fill="white"/>
<path d="M80.0261 36.8752C81.8078 34.9665 82.8869 32.4866 82.8869 29.7527C82.8869 23.904 78.1809 19.1979 72.3322 19.1979H61.4601V60.5281H65.4678V49.1481C65.4678 44.0612 70.1104 40.0534 75.3243 40.0534C80.7921 40.0534 85.2442 44.5055 85.2442 49.9733V60.5281H89.2477V49.9733C89.2434 43.9342 85.3669 38.8473 80.0261 36.8752ZM73.2209 36.2404C70.1696 36.6847 67.4992 38.149 65.4636 40.1804V23.2015H72.3322C75.9548 23.2015 78.8834 26.1258 78.8834 29.7484C78.8834 34.0143 75.7644 35.8595 73.2209 36.2404Z" fill="white"/>
<path d="M23.9642 127.284V137.792H25.42V134.039H27.8958C30.0584 134.039 31.5904 132.731 31.5904 130.644C31.5904 128.558 30.0584 127.28 27.8958 127.28H23.9642V127.284ZM30.0922 130.666C30.0922 132.003 29.1781 132.722 27.6292 132.722H25.4243V128.609H27.6292C29.1739 128.605 30.0922 129.328 30.0922 130.666ZM33.3932 137.792H34.9548L35.8859 135.63H40.9008L41.815 137.792H43.3935L38.8144 127.178H37.9723L33.3932 137.792ZM36.4276 134.314L38.3955 129.718L40.3634 134.314H36.4276ZM54.7904 137.792L51.9084 133.154C53.4531 132.871 54.4603 131.817 54.4603 130.255C54.4603 128.393 53.0045 127.28 51.0662 127.28H46.8638V137.788H48.3069V133.226H50.3341L53.1103 137.788H54.7904V137.792ZM48.3027 128.605H51.0493C52.2342 128.605 52.9579 129.235 52.9579 130.255C52.9579 131.275 52.2385 131.906 51.0493 131.906H48.3027V128.605ZM57.9856 132.54C57.939 135.452 60.2074 138.051 63.4788 137.991C66.7501 138.051 69.0058 135.452 68.9593 132.54C69.0058 129.629 66.7544 127.047 63.4788 127.09C60.2116 127.047 57.9433 129.629 57.9856 132.54ZM67.4781 132.54C67.4781 134.703 65.9757 136.595 63.483 136.595C61.0073 136.595 59.4753 134.703 59.4753 132.54C59.4753 130.395 61.0073 128.486 63.483 128.486C65.9757 128.486 67.4781 130.395 67.4781 132.54ZM72.9712 137.792H79.6367V136.442H74.4271V127.284H72.9712V137.792ZM83.2255 127.284V137.792H90.056V136.442H84.6813V133.137H89.637V131.804H84.6813V128.634H90.056V127.284H83.2255ZM93.2554 135.511C93.4501 136.265 93.886 136.861 94.5927 137.314C95.2995 137.763 96.0782 137.991 96.9669 137.991C99.0999 137.991 100.827 136.671 100.827 134.72C100.827 133.141 99.8362 132.075 97.8683 131.521L96.7722 131.22C95.8116 130.966 95.2995 130.56 95.2995 129.764C95.2995 128.922 96.0189 128.397 96.9373 128.397C97.7625 128.397 98.4397 128.804 98.7401 129.57L100.001 128.939C99.5654 127.813 98.3339 127.094 96.9373 127.094C95.2402 127.094 93.8606 128.19 93.8606 129.828C93.8606 131.284 94.7916 132.126 96.366 132.562L97.4917 132.879C98.6936 133.192 99.3834 133.734 99.3834 134.771C99.3834 135.956 98.3635 136.692 96.9669 136.692C95.7523 136.692 94.8213 136.015 94.5208 134.919L93.2554 135.511ZM110.205 137.792H114.005C117.264 137.839 119.456 135.494 119.426 132.54C119.456 129.582 117.264 127.242 114.005 127.284H110.205V137.792ZM111.661 136.442V128.634H113.87C116.451 128.634 117.937 130.314 117.937 132.54C117.937 134.762 116.451 136.442 113.87 136.442H111.661V136.442ZM123.836 131.597L124.979 127.288H123.057V131.597H123.836ZM128.745 127.284V137.792H130.201V133.137H136.16V137.792H137.616V127.284H136.16V131.787H130.201V127.284H128.745ZM141.103 137.792H142.664L143.596 135.63H148.611L149.525 137.792H151.103L146.524 127.178H145.682L141.103 137.792ZM144.137 134.314L146.105 129.718L148.073 134.314H144.137ZM154.586 137.792H159.047C160.922 137.792 162.276 136.62 162.276 134.805C162.276 133.543 161.463 132.553 160.371 132.206C160.926 131.829 161.438 131.051 161.438 130.073C161.438 128.393 160.16 127.28 158.374 127.28H154.59V137.792H154.586ZM156.012 131.821V128.592H158.099C159.301 128.592 159.961 129.252 159.961 130.2C159.961 131.178 159.313 131.821 158.37 131.821H156.012ZM156.012 136.489V133.124H158.877C160.092 133.124 160.799 133.785 160.799 134.809C160.799 135.875 160.092 136.489 158.877 136.489H156.012V136.489ZM166.207 137.792H167.663V127.284H166.207V137.792ZM174.629 128.605V137.792H176.085V128.605H179.462V127.284H171.235V128.605H174.629ZM180.694 137.792H182.255L183.186 135.63H188.201L189.12 137.792H190.694L186.115 127.178H185.273L180.694 137.792ZM183.728 134.314L185.696 129.718L187.664 134.314H183.728ZM202.315 137.898H203.157V127.284H201.701L201.689 135.063L195.023 127.178H194.168V137.792H195.624L195.637 130.014L202.315 137.898ZM210.136 128.605V137.792H211.592V128.605H214.969V127.284H206.742V128.605H210.136ZM217.538 135.511C217.732 136.265 218.168 136.861 218.875 137.314C219.582 137.763 220.361 137.991 221.249 137.991C223.382 137.991 225.109 136.671 225.109 134.72C225.109 133.141 224.119 132.075 222.151 131.521L221.055 131.22C220.094 130.966 219.582 130.56 219.582 129.764C219.582 128.922 220.301 128.397 221.22 128.397C222.045 128.397 222.722 128.804 223.022 129.57L224.284 128.939C223.848 127.813 222.616 127.094 221.22 127.094C219.523 127.094 218.143 128.19 218.143 129.828C218.143 131.284 219.074 132.126 220.648 132.562L221.774 132.879C222.976 133.192 223.666 133.734 223.666 134.771C223.666 135.956 222.646 136.692 221.249 136.692C220.035 136.692 219.104 136.015 218.803 134.919L217.538 135.511Z" fill="white"/>
<path d="M14.1628 68.0484H14.1586C13.6465 68.0484 13.1344 68.2431 12.7493 68.6282L7.32808 74.0494C6.94296 74.4345 6.74829 74.9466 6.74829 75.4545V75.4587C6.74829 75.9665 6.94296 76.4786 7.32808 76.8637L7.33654 76.8722L7.34924 76.8807C7.73436 77.2573 8.23374 77.4477 8.73735 77.4477H8.74159H8.74581C9.18595 77.4477 9.62184 77.2912 9.9858 77.0034L10.1043 77.1219L10.409 76.8129L10.3074 76.7114L15.5721 71.4467C15.9572 71.0616 16.1519 70.5495 16.1561 70.0417V70.0375C16.1561 69.5254 15.9614 69.0175 15.5763 68.6282C15.1827 68.2431 14.6707 68.0484 14.1628 68.0484Z" fill="#FFDF43"/>
<path d="M12.8297 47.7431C13.2148 48.1282 13.7269 48.3228 14.239 48.3228H14.2432C14.7553 48.3228 15.2674 48.1282 15.6525 47.7431C16.0376 47.3579 16.2323 46.8459 16.2323 46.3338C16.2323 45.8259 16.0376 45.3181 15.6567 44.933L10.2186 39.4948L10.1974 39.4821C9.81651 39.1139 9.32136 38.9277 8.82198 38.9277H8.81775C8.30567 38.9277 7.79782 39.1224 7.40848 39.5075C7.02336 39.8926 6.82869 40.4047 6.82869 40.9125V40.9168C6.82869 41.4246 7.02336 41.9367 7.40848 42.326L12.8297 47.7431Z" fill="#FFDF43"/>
<path d="M11.1877 59.944C11.5516 59.5801 11.7759 59.0807 11.7759 58.5348C11.7759 58.0058 11.5601 57.5233 11.2215 57.1636L11.2131 57.1509L11.1919 57.1297L11.1665 57.1043L11.1538 57.1001C10.7941 56.7573 10.3159 56.5457 9.79111 56.5457H2.10573L2.0888 56.5499C1.55556 56.5584 1.06888 56.7785 0.713388 57.1297C0.353664 57.4937 0.129364 57.9888 0.129364 58.5348V58.539V58.5644C0.137828 59.0976 0.357892 59.5843 0.709152 59.9398L0.713388 59.944C1.07311 60.3038 1.57249 60.5281 2.11842 60.5281H9.78265C10.3286 60.5281 10.828 60.3038 11.1877 59.944Z" fill="#FFDF43"/>
<path d="M48.7851 47.8446L48.6328 47.997L48.7851 47.8446C47.4394 46.5327 45.5899 45.7244 43.5586 45.7244H43.5289L38.6494 45.7455L38.5478 45.7032L38.5055 45.6016L38.5267 40.6163V40.5825C38.5267 38.5511 37.7099 36.7313 36.3895 35.4067C35.1326 34.1497 33.4271 33.3541 31.5184 33.2737C31.4211 33.2695 31.3195 33.2695 31.2179 33.2695C29.1781 33.2695 27.3202 34.1159 25.966 35.4871C24.6075 36.8583 23.7653 38.7457 23.7569 40.8152L23.7357 56.5372H17.7093L17.6923 56.5415C17.1591 56.5499 16.6724 56.77 16.3169 57.1213C15.9572 57.4852 15.7329 57.9804 15.7329 58.5263V58.5305V58.5559C15.7414 59.0892 15.9614 59.5759 16.3127 59.9313L16.3169 59.9356C16.6766 60.2953 17.176 60.5196 17.722 60.5196H23.9473H23.9727H25.3947H25.4158L43.5543 60.49C45.5984 60.4815 47.4436 59.6478 48.7894 58.302C50.1436 56.9435 50.9773 55.0857 50.9773 53.0289V52.9866C50.9689 50.9679 50.1309 49.1608 48.7851 47.8446ZM47.16 53.0924L47.1558 53.1051L47.16 53.1178V53.1262C47.1473 54.0996 46.7495 54.9841 46.1105 55.6231C45.4672 56.2706 44.57 56.6727 43.584 56.6769L27.6927 56.7192L27.5911 56.6769L27.5488 56.5753L27.5699 40.6629C27.5742 39.6979 27.9677 38.8177 28.5941 38.1786L28.611 38.1617L28.6152 38.1533L28.6279 38.1406C29.2712 37.4973 30.1642 37.091 31.1502 37.091H31.1672C32.1448 37.091 33.0335 37.4888 33.6725 38.1279C34.3073 38.7627 34.7009 39.6429 34.7051 40.6078V40.8237L34.6882 44.9288V44.9457V44.9626V44.9795C34.6882 45.1869 34.7094 45.3985 34.739 45.6101L34.7644 45.7752V45.7794C34.8025 45.9868 34.849 46.1814 34.9083 46.3676V46.3719L34.9548 46.5031V46.5073V46.5115L34.9591 46.52L34.9633 46.5327C35.0225 46.6935 35.086 46.8501 35.158 46.9982L35.1622 47.0067V47.0109V47.0152L35.2172 47.1336V47.1379L35.2215 47.1421C35.3103 47.3072 35.4119 47.468 35.5304 47.6288L35.5346 47.633L35.5389 47.6373L35.6362 47.7685L35.6404 47.7769L35.6531 47.7896C35.7674 47.9377 35.8816 48.0732 36.0001 48.1917L36.0171 48.2086L36.0213 48.2128L36.034 48.2255C36.2117 48.4033 36.4064 48.5641 36.6096 48.7122L36.618 48.7164L36.7154 48.7757L36.7365 48.7884L36.745 48.7926C36.9185 48.9069 37.0878 49.0042 37.2571 49.0888H37.2613L37.4094 49.1946L37.439 49.165L37.5068 49.1904L37.8411 49.4824V49.3258L37.8961 49.347L37.9173 49.3555H37.9215L38.0442 49.3893H38.0485H38.0569L38.095 49.3978H38.0992H38.1035H38.1077H38.1119L38.2347 49.4274H38.2389L38.4082 49.4613H38.4124L38.5097 49.4782H38.514L38.6155 49.4951H38.6198L38.7214 49.5078H38.7256L38.9076 49.5247V49.5374H39.1234L39.2927 49.5417H39.3011L43.5924 49.5247H43.6136H43.6178C44.5912 49.5247 45.4757 49.9226 46.1147 50.5574L46.1274 50.5701C46.758 51.2006 47.1473 52.0724 47.1558 53.0331V53.0924H47.16Z" fill="#FFDF43"/>
<path d="M114.272 19.1345C102.824 19.1345 93.6067 28.5465 93.6067 39.7995C93.6067 51.3064 102.828 60.5281 114.272 60.5281C125.779 60.5281 135 51.3064 135 39.7995C135 28.5465 125.783 19.1345 114.272 19.1345ZM114.272 56.5245C105.114 56.5245 97.6102 49.0211 97.6102 39.8037C97.6102 30.6456 105.114 23.1422 114.272 23.1422C123.493 23.1422 130.993 30.6456 130.993 39.8037C130.997 49.0211 123.493 56.5245 114.272 56.5245Z" fill="#FFDF43"/>
<path d="M114.306 33.1171C113.692 33.1171 113.099 33.206 112.537 33.3626C113.197 33.8535 113.633 34.6364 113.633 35.5252C113.633 37.0191 112.422 38.2294 110.928 38.2294C109.811 38.2294 108.85 37.5481 108.44 36.5789C107.903 37.5438 107.594 38.6526 107.594 39.8376C107.594 43.5449 110.598 46.5496 114.306 46.5496C118.013 46.5496 121.018 43.5449 121.018 39.8376C121.018 36.1219 118.013 33.1171 114.306 33.1171Z" fill="#FFDF43"/>
<path d="M93.9241 10.5477L94.233 10.8524L94.3346 10.7508L99.5993 16.0155C99.9844 16.4006 100.496 16.5952 101.004 16.5995H101.009C101.521 16.5995 102.028 16.4048 102.418 16.0197C102.803 15.6346 102.998 15.1225 102.998 14.6147V14.6104C102.998 14.0983 102.803 13.5863 102.418 13.2011L96.9966 7.77991C96.6114 7.39479 96.0994 7.20012 95.5915 7.20012H95.5873C95.0794 7.20012 94.5674 7.39479 94.1822 7.77991L94.1738 7.78837L94.1653 7.80107C93.7887 8.18618 93.5982 8.68556 93.5982 9.18918V9.19341C93.5982 9.63354 93.7506 10.0694 94.0426 10.4334L93.9241 10.5477Z" fill="#FFDF43"/>
<path d="M127.311 16.6841C127.823 16.6841 128.331 16.4894 128.716 16.1086L134.154 10.6704L134.167 10.6492C134.535 10.2683 134.721 9.77319 134.721 9.27381V9.26958C134.721 8.75751 134.526 8.24966 134.141 7.86031C133.756 7.4752 133.244 7.28053 132.736 7.28053H132.732C132.224 7.28053 131.712 7.4752 131.323 7.86031L125.901 13.2816C125.516 13.6667 125.322 14.1788 125.322 14.6908V14.6951C125.322 15.2071 125.516 15.715 125.901 16.1043C126.291 16.4894 126.799 16.6841 127.311 16.6841Z" fill="#FFDF43"/>
<path d="M112.752 11.6395C113.116 12.0035 113.616 12.2278 114.162 12.2278C114.691 12.2278 115.173 12.0119 115.533 11.6734L115.546 11.6649L115.567 11.6437L115.592 11.6184L115.596 11.6057C115.939 11.2459 116.151 10.7677 116.151 10.2429V2.55755L116.147 2.54062C116.138 2.00739 115.918 1.5207 115.567 1.16521C115.203 0.805486 114.708 0.581192 114.162 0.581192H114.157H114.132C113.599 0.589656 113.112 0.80972 112.757 1.16098L112.752 1.16521C112.393 1.52493 112.168 2.02432 112.168 2.57025V10.2345C112.164 10.7804 112.388 11.2798 112.752 11.6395Z" fill="#FFDF43"/>
<path d="M225.871 79.7415V75.7338H205.459V117.068H225.109V113.06H209.463V98.371H220.974V94.3675H209.463V79.7415H225.871Z" fill="white"/>
<path d="M176.974 79.7415H186.255V117.064H190.262V79.7415H199.547V75.7338H176.974V79.7415Z" fill="white"/>
<path d="M171.061 68.8017H167.054V110.132H171.061V68.8017Z" fill="white"/>
<path d="M145.627 68.8017H141.623V110.132H160.951V106.124H145.627V68.8017Z" fill="white"/>
<path d="M77.4022 75.7338C71.4265 75.7338 66.5935 80.5033 66.5935 86.4154C66.5935 91.5658 70.4109 95.6371 75.4301 97.6727L77.91 98.7518C81.2787 100.153 84.2708 102.692 84.2708 106.382C84.2708 110.068 81.2195 113.056 77.4022 113.056C73.5849 113.056 70.5971 110.195 70.5971 106.573V102.755H66.5893V106.573C66.5893 112.548 71.4223 117.064 77.3979 117.064C83.4371 117.064 88.2701 112.231 88.2701 106.382C88.2701 101.168 84.457 97.0971 79.4293 95.0657L76.9494 93.9866C73.6441 92.5858 70.5928 90.0423 70.5928 86.4197C70.5928 82.7336 73.6441 79.7415 77.3979 79.7415C81.2152 79.7415 84.2666 82.7293 84.2666 86.4197V89.9196H88.2743V86.4197C88.2743 80.5033 83.4413 75.7338 77.4022 75.7338Z" fill="white"/>
<path d="M27.9508 68.8017H23.9431V110.132H27.9508V68.8017Z" fill="white"/>
<path d="M114.272 75.6703C102.824 75.6703 93.6067 85.0824 93.6067 96.3353C93.6067 107.842 102.828 117.064 114.272 117.064C125.779 117.064 135 107.842 135 96.3353C135 85.0824 125.783 75.6703 114.272 75.6703ZM114.272 113.06C105.114 113.06 97.6102 105.557 97.6102 96.3396C97.6102 87.1814 105.114 79.678 114.272 79.678C123.493 79.678 130.993 87.1814 130.993 96.3396C130.997 105.557 123.493 113.06 114.272 113.06Z" fill="white"/>
<path d="M47.9599 68.8017C41.7303 68.8017 36.6434 73.8886 36.6434 80.1817V110.132H40.6511V80.1817C40.6511 76.1104 43.9564 72.8052 47.9641 72.8052C52.0353 72.8052 55.3406 76.1104 55.3406 80.1817V110.132H59.3483V80.1817C59.3441 73.8886 54.2572 68.8017 47.9599 68.8017Z" fill="white"/>
</svg>
